<?xml version="1.0" encoding="UTF-8" standalone="no"?>
<!DOCTYPE svg PUBLIC "-//W3C//DTD SVG 1.1//EN" "http://www.w3.org/Graphics/SVG/1.1/DTD/svg11.dtd">
<svg width="100%" height="100%" viewBox="0 0 21 21" version="1.1" xmlns="http://www.w3.org/2000/svg" xmlns:xlink="http://www.w3.org/1999/xlink" xml:space="preserve" xmlns:serif="http://www.serif.com/" style="fill-rule:evenodd;clip-rule:evenodd;stroke-linejoin:round;stroke-miterlimit:2;">
    <g transform="matrix(1,0,0,1,-594.672,-227.872)">
        <g transform="matrix(1,0,0,1,592.706,225.885)">
            <path d="M4.76,10.59C4.803,10.596 4.847,10.598 4.89,10.598C5.443,10.598 5.898,10.143 5.898,9.59C5.898,9.086 5.52,8.655 5.02,8.59L3.26,8.15C3.165,8.121 3.066,8.106 2.967,8.106C2.418,8.106 1.967,8.557 1.967,9.106C1.967,9.569 2.289,9.975 2.74,10.08L4.5,10.55C4.584,10.578 4.672,10.591 4.76,10.59ZM8.62,5C8.74,5.448 9.157,5.756 9.62,5.74C9.706,5.754 9.794,5.754 9.88,5.74C10.405,5.595 10.72,5.046 10.58,4.52L10.11,2.76C10.005,2.309 9.599,1.987 9.136,1.987C8.587,1.987 8.136,2.438 8.136,2.987C8.136,3.086 8.151,3.185 8.18,3.28L8.62,5ZM13.45,15C13.261,14.801 12.999,14.689 12.725,14.689C12.451,14.689 12.189,14.801 12,15L8.5,18.56C7.65,19.375 6.29,19.375 5.44,18.56C5.031,18.156 4.8,17.605 4.8,17.03C4.8,16.455 5.031,15.904 5.44,15.5L9,12C9.222,11.81 9.35,11.532 9.35,11.24C9.35,10.692 8.898,10.24 8.35,10.24C8.058,10.24 7.78,10.368 7.59,10.59L4,14.08C3.215,14.865 2.774,15.93 2.774,17.04C2.774,19.336 4.664,21.226 6.96,21.226C8.07,21.226 9.135,20.785 9.92,20L13.45,16.47C13.655,16.281 13.772,16.014 13.772,15.735C13.772,15.456 13.655,15.189 13.45,15ZM5.18,6.59C5.366,6.775 5.618,6.879 5.88,6.88C6.146,6.882 6.401,6.777 6.59,6.59C6.975,6.203 6.975,5.567 6.59,5.18L5.3,3.89C5.119,3.735 4.888,3.65 4.65,3.65C4.101,3.65 3.65,4.101 3.65,4.65C3.65,4.888 3.735,5.119 3.89,5.3L5.18,6.59ZM21.26,13.92L19.5,13.45C19.395,13.414 19.285,13.395 19.173,13.395C18.625,13.395 18.173,13.847 18.173,14.395C18.173,14.879 18.524,15.296 19,15.38L20.76,15.85L21.02,15.85C21.063,15.856 21.107,15.858 21.15,15.858C21.703,15.858 22.158,15.403 22.158,14.85C22.158,14.346 21.78,13.915 21.28,13.85L21.26,13.92ZM15.38,19C15.261,18.567 14.865,18.264 14.416,18.264C14.326,18.264 14.236,18.276 14.15,18.3C13.625,18.445 13.31,18.994 13.45,19.52L13.92,21.28C14.04,21.728 14.457,22.036 14.92,22.02C15.006,22.03 15.094,22.03 15.18,22.02C15.618,21.905 15.925,21.506 15.925,21.053C15.925,20.964 15.913,20.876 15.89,20.79L15.38,19ZM18.82,17.43C18.639,17.275 18.408,17.19 18.17,17.19C17.621,17.19 17.17,17.641 17.17,18.19C17.17,18.428 17.255,18.659 17.41,18.84L18.7,20.13C19.087,20.515 19.723,20.515 20.11,20.13C20.495,19.743 20.495,19.107 20.11,18.72L18.82,17.43ZM21.2,7C21.2,6.974 21.201,6.948 21.201,6.922C21.201,4.64 19.323,2.762 17.041,2.762C15.928,2.762 14.861,3.208 14.08,4L10.55,7.56C10.36,7.751 10.253,8.01 10.253,8.28C10.253,8.841 10.714,9.302 11.275,9.302C11.547,9.302 11.808,9.193 12,9L15.5,5.44C16.35,4.625 17.71,4.625 18.56,5.44C18.969,5.844 19.2,6.395 19.2,6.97C19.2,7.545 18.969,8.096 18.56,8.5L15,12C14.615,12.387 14.615,13.023 15,13.41C15.387,13.795 16.023,13.795 16.41,13.41L20,9.92C20.765,9.141 21.196,8.092 21.2,7Z" style="fill:rgb(66,66,66);fill-rule:nonzero;"/>
        </g>
    </g>
</svg>
