<?xml version="1.0" encoding="UTF-8" standalone="no"?>
<!DOCTYPE svg PUBLIC "-//W3C//DTD SVG 1.1//EN" "http://www.w3.org/Graphics/SVG/1.1/DTD/svg11.dtd">
<svg width="100%" height="100%" viewBox="0 0 56 30" version="1.1" xmlns="http://www.w3.org/2000/svg" xmlns:xlink="http://www.w3.org/1999/xlink" xml:space="preserve" xmlns:serif="http://www.serif.com/" style="fill-rule:evenodd;clip-rule:evenodd;stroke-linejoin:round;stroke-miterlimit:2;">
    <g transform="matrix(1,0,0,1,-576.198,-323.848)">
        <g transform="matrix(1,0,0,1,10.8844,0)">
            <g transform="matrix(0.135571,0,0,0.135571,524.678,289.053)">
                <path d="M506.557,256.663C516.108,256.663 525.123,258.563 533.602,262.364C542.081,266.166 549.537,271.282 555.97,277.714C562.279,284.025 567.324,291.367 571.102,299.74C571.31,299.257 571.524,298.776 571.745,298.296C575.636,289.834 580.79,282.491 587.211,276.265C593.63,270.04 601.12,265.128 609.679,261.529C618.239,257.931 627.187,256.326 636.524,256.715L636.816,256.715L637.108,256.715C646.446,256.326 655.394,257.931 663.954,261.529C672.513,265.128 680.003,270.04 686.422,276.265C692.842,282.491 697.997,289.834 701.887,298.296C705.778,306.758 707.724,315.658 707.724,324.995L707.724,383.647C707.724,387.537 706.313,390.894 703.492,393.714C700.671,396.535 697.219,398.043 693.133,398.238C689.438,398.043 686.131,396.486 683.213,393.568C680.294,390.65 678.835,387.246 678.835,383.356L678.835,327.33C678.835,321.494 677.717,316.047 675.48,310.989C673.242,305.931 670.228,301.506 666.433,297.713C662.64,293.919 658.166,290.904 653.011,288.667C647.856,286.429 642.458,285.311 636.816,285.311C631.174,285.311 625.776,286.429 620.622,288.667C615.466,290.904 610.992,293.919 607.199,297.713C603.405,301.506 600.39,305.931 598.153,310.989C595.915,316.047 594.797,321.494 594.797,327.33L594.797,383.356C594.797,387.246 593.338,390.65 590.42,393.568C587.502,396.486 584.195,398.043 580.499,398.238C576.414,398.043 572.961,396.535 570.141,393.714C567.319,390.894 565.908,387.537 565.908,383.647L565.908,365.498C563.164,369.799 559.997,373.773 556.409,377.418C550.073,383.85 542.617,388.918 534.041,392.622C525.463,396.325 516.206,398.177 506.265,398.177C496.518,398.177 487.356,396.423 478.78,392.914C470.203,389.406 462.698,384.483 456.266,378.149C449.86,371.838 444.806,364.418 441.107,355.885L440.784,356.599C436.893,365.062 431.738,372.404 425.318,378.63C418.899,384.855 411.41,389.767 402.85,393.366C394.29,396.964 385.342,398.569 376.005,398.18L375.713,398.179L375.42,398.18C366.083,398.569 357.135,396.964 348.575,393.366C340.016,389.767 332.526,384.855 326.107,378.63C319.687,372.404 314.532,365.062 310.642,356.599C306.751,348.137 304.805,339.237 304.805,329.9L304.805,271.248C304.805,267.358 306.216,264.001 309.037,261.18C311.858,258.36 315.31,256.852 319.396,256.657C323.091,256.852 326.398,258.409 329.317,261.327C332.235,264.244 333.694,267.649 333.694,271.539L333.694,327.565C333.694,333.401 334.812,338.848 337.049,343.906C339.287,348.963 342.302,353.389 346.095,357.182C349.889,360.976 354.363,363.991 359.518,366.228C364.673,368.466 370.071,369.585 375.713,369.585C381.355,369.585 386.753,368.466 391.907,366.228C397.063,363.991 401.537,360.976 405.33,357.182C409.124,353.389 412.138,348.963 414.376,343.906C416.614,338.848 417.731,333.401 417.731,327.565L417.731,271.539C417.731,267.649 419.191,264.244 422.109,261.327C425.027,258.409 428.334,256.852 432.03,256.657C436.115,256.852 439.567,258.36 442.389,261.18C445.21,264.001 446.621,267.358 446.621,271.248L446.621,289.614C449.309,285.467 452.426,281.647 455.974,278.153C462.407,271.818 469.96,266.75 478.634,262.95C487.308,259.149 496.616,257.053 506.557,256.663ZM506.265,285.61C500.611,285.61 495.203,286.681 490.037,288.825C484.871,290.969 480.388,293.942 476.587,297.743C472.786,301.544 469.764,305.979 467.523,311.046C465.281,316.114 464.161,321.67 464.161,327.712C464.161,333.365 465.281,338.775 467.523,343.94C469.764,349.105 472.786,353.637 476.587,357.536C480.388,361.434 484.871,364.504 490.037,366.746C495.203,368.987 500.611,370.108 506.265,370.108C511.917,370.108 517.326,368.987 522.491,366.746C527.658,364.504 532.141,361.434 535.941,357.536C539.743,353.637 542.764,349.105 545.005,343.94C547.247,338.775 548.368,333.365 548.368,327.712C547.783,316.212 543.69,306.514 536.087,298.621C528.485,290.726 518.642,286.389 506.557,285.61L506.265,285.61Z" style="fill:rgb(97,97,97);fill-rule:nonzero;"/>
            </g>
            <g transform="matrix(0.764131,6.08492e-33,-6.08492e-33,0.764131,155.653,149.659)">
                <g transform="matrix(12,0,0,12,535.405,266.719)">
                    <path d="M0.059,-0.7L0.059,-0.252C0.059,-0.066 0.163,0.01 0.303,0.01C0.461,0.01 0.548,-0.066 0.548,-0.252L0.548,-0.7L0.401,-0.7L0.401,-0.262C0.401,-0.164 0.357,-0.135 0.303,-0.135C0.25,-0.135 0.206,-0.164 0.206,-0.262L0.206,-0.7L0.059,-0.7Z" style="fill:rgb(73,73,73);fill-rule:nonzero;"/>
                </g>
                <g transform="matrix(12,0,0,12,542.629,266.719)">
                    <path d="M0.206,-0L0.206,-0.251L0.257,-0.251L0.43,-0.001L0.589,-0L0.407,-0.264C0.501,-0.291 0.559,-0.36 0.559,-0.473C0.559,-0.623 0.459,-0.7 0.306,-0.7L0.059,-0.7L0.059,-0L0.206,-0ZM0.206,-0.555L0.305,-0.555C0.379,-0.555 0.412,-0.522 0.412,-0.477C0.412,-0.422 0.379,-0.396 0.305,-0.396L0.206,-0.396L0.206,-0.555Z" style="fill:rgb(73,73,73);fill-rule:nonzero;"/>
                </g>
                <g transform="matrix(12,0,0,12,550.129,266.719)">
                    <path d="M0.571,-0L0.571,-0.145L0.206,-0.145L0.206,-0.7L0.059,-0.7L0.059,-0L0.571,-0Z" style="fill:rgb(73,73,73);fill-rule:nonzero;"/>
                </g>
                <g transform="matrix(12,0,0,12,560.521,266.719)">
                    <path d="M0.047,-0.494C0.047,-0.346 0.187,-0.312 0.301,-0.285C0.371,-0.268 0.433,-0.253 0.433,-0.204C0.433,-0.153 0.395,-0.126 0.335,-0.126C0.28,-0.126 0.2,-0.15 0.197,-0.237L0.053,-0.236C0.057,-0.036 0.223,0.009 0.333,0.009C0.47,0.009 0.595,-0.055 0.595,-0.217C0.595,-0.346 0.474,-0.38 0.371,-0.407C0.284,-0.428 0.209,-0.447 0.209,-0.503C0.209,-0.55 0.25,-0.574 0.319,-0.574C0.377,-0.574 0.431,-0.546 0.437,-0.482L0.578,-0.483C0.574,-0.645 0.433,-0.709 0.321,-0.709C0.165,-0.709 0.047,-0.641 0.047,-0.494Z" style="fill:rgb(73,73,73);fill-rule:nonzero;"/>
                </g>
                <g transform="matrix(12,0,0,12,568.093,266.719)">
                    <path d="M0.059,-0.7L0.059,-0L0.571,-0L0.571,-0.145L0.206,-0.145L0.206,-0.278L0.521,-0.278L0.521,-0.424L0.206,-0.424L0.206,-0.555L0.571,-0.555L0.571,-0.7L0.059,-0.7Z" style="fill:rgb(73,73,73);fill-rule:nonzero;"/>
                </g>
                <g transform="matrix(12,0,0,12,575.317,266.719)">
                    <path d="M0.206,-0L0.206,-0.251L0.257,-0.251L0.43,-0.001L0.589,-0L0.407,-0.264C0.501,-0.291 0.559,-0.36 0.559,-0.473C0.559,-0.623 0.459,-0.7 0.306,-0.7L0.059,-0.7L0.059,-0L0.206,-0ZM0.206,-0.555L0.305,-0.555C0.379,-0.555 0.412,-0.522 0.412,-0.477C0.412,-0.422 0.379,-0.396 0.305,-0.396L0.206,-0.396L0.206,-0.555Z" style="fill:rgb(73,73,73);fill-rule:nonzero;"/>
                </g>
                <g transform="matrix(12,0,0,12,582.601,266.719)">
                    <path d="M0.013,-0.7L0.284,-0L0.43,-0L0.701,-0.7L0.551,-0.7L0.357,-0.199L0.163,-0.7L0.013,-0.7Z" style="fill:rgb(73,73,73);fill-rule:nonzero;"/>
                </g>
                <g transform="matrix(12,0,0,12,591.169,266.719)">
                    <rect x="0.059" y="-0.7" width="0.147" height="0.7" style="fill:rgb(73,73,73);fill-rule:nonzero;"/>
                </g>
                <g transform="matrix(12,0,0,12,594.349,266.719)">
                    <path d="M0.034,-0.345C0.034,-0.149 0.183,0.01 0.379,0.01C0.504,0.01 0.611,-0.055 0.671,-0.153L0.546,-0.225C0.511,-0.169 0.45,-0.132 0.379,-0.132C0.264,-0.132 0.18,-0.226 0.18,-0.345C0.18,-0.47 0.264,-0.568 0.379,-0.568C0.446,-0.568 0.503,-0.535 0.539,-0.482L0.656,-0.567C0.593,-0.654 0.493,-0.71 0.379,-0.71C0.183,-0.71 0.034,-0.547 0.034,-0.345Z" style="fill:rgb(73,73,73);fill-rule:nonzero;"/>
                </g>
                <g transform="matrix(12,0,0,12,602.545,266.719)">
                    <path d="M0.059,-0.7L0.059,-0L0.571,-0L0.571,-0.145L0.206,-0.145L0.206,-0.278L0.521,-0.278L0.521,-0.424L0.206,-0.424L0.206,-0.555L0.571,-0.555L0.571,-0.7L0.059,-0.7Z" style="fill:rgb(73,73,73);fill-rule:nonzero;"/>
                </g>
            </g>
        </g>
    </g>
</svg>
